<svg height="548pt" viewBox="-60 -17 548 548.00211" width="548pt" xmlns="http://www.w3.org/2000/svg"><path d="m37.90625 222.410156c-2.652344 0-5.277344-1.234375-6.941406-3.5625-15.453125-21.597656-26.742188-45.5-33.539063-71.046875-1.210937-4.550781 1.496094-9.21875 6.046875-10.433593 4.507813-1.191407 9.21875 1.492187 10.433594 6.042968 6.269531 23.554688 16.671875 45.59375 30.933594 65.511719 2.734375 3.828125 1.851562 9.148437-1.976563 11.890625-1.507812 1.078125-3.238281 1.597656-4.957031 1.597656zm0 0"/><path d="m380.332031 223.945312c-1.742187 0-3.5-.53125-5.015625-1.632812-3.804687-2.78125-4.644531-8.113281-1.863281-11.917969 17.191406-23.570312 28.851563-49.949219 34.683594-78.402343.933593-4.613282 5.457031-7.621094 10.050781-6.640626 4.617188.941407 7.597656 5.449219 6.644531 10.0625-6.316406 30.859376-18.96875 59.46875-37.609375 85.027344-1.664062 2.292969-4.261718 3.503906-6.890625 3.503906zm0 0"/><path d="m416.476562 477.722656c-3.761718 0-7.210937-2.519531-8.234374-6.335937-6.199219-23.292969-16.4375-45.101563-30.441407-64.828125-2.722656-3.835938-1.820312-9.160156 2.011719-11.886719 3.839844-2.722656 9.15625-1.820313 11.890625 2.019531 15.183594 21.386719 26.289063 45.042969 33.023437 70.3125 1.207032 4.542969-1.5 9.21875-6.046874 10.425782-.738282.195312-1.472657.292968-2.203126.292968zm0 0"/><path d="m5.671875 489.628906c-.566406 0-1.140625-.050781-1.714844-.175781-4.609375-.941406-7.589843-5.445313-6.644531-10.0625 5.496094-26.863281 15.878906-52.167969 30.847656-75.214844 2.5625-3.953125 7.835938-5.066406 11.796875-2.511719 3.945313 2.5625 5.066407 7.847657 2.503907 11.789063-13.804688 21.257813-23.378907 44.59375-28.445313 69.359375-.824219 4.039062-4.382813 6.816406-8.34375 6.816406zm0 0"/><path d="m256.996094 48.136719c-1.304688 0-2.636719-.304688-3.886719-.941407-4.1875-2.152343-5.839844-7.292968-3.6875-11.480468 11.324219-22.027344 33.722656-35.714844 58.476563-35.714844 4.710937 0 8.523437 3.816406 8.523437 8.527344 0 4.707031-3.8125 8.519531-8.523437 8.519531-18.335938 0-34.925782 10.136719-43.304688 26.460937-1.523438 2.941407-4.503906 4.628907-7.597656 4.628907zm0 0"/><path d="m159.410156 48.117188c-3.097656 0-6.078125-1.683594-7.589844-4.625-8.386718-16.3125-24.96875-26.445313-43.292968-26.445313-4.710938 0-8.519532-3.8125-8.519532-8.519531 0-4.710938 3.808594-8.527344 8.519532-8.527344 24.742187 0 47.136718 13.675781 58.464844 35.695312 2.144531 4.191407.496093 9.328126-3.6875 11.480469-1.253907.636719-2.585938.941407-3.894532.941407zm0 0"/><path d="m126.792969 142.234375c-3.890625 0-7.390625-2.671875-8.304688-6.617187-1.558593-6.84375-2.359375-13.910157-2.359375-21.003907 0-51.582031 41.964844-93.550781 93.546875-93.550781 51.585938 0 93.550781 41.96875 93.550781 93.550781 0 7.089844-.800781 14.160157-2.367187 20.996094-1.054687 4.585937-5.632813 7.460937-10.214844 6.402344-4.582031-1.054688-7.445312-5.625-6.398437-10.214844 1.28125-5.589844 1.929687-11.371094 1.929687-17.179687 0-42.183594-34.3125-76.5-76.5-76.5-42.183593 0-76.5 34.316406-76.5 76.5 0 5.808593.648438 11.59375 1.933594 17.195312 1.046875 4.582031-1.816406 9.160156-6.402344 10.207031-.640625.152344-1.28125.214844-1.914062.214844zm0 0"/><path d="m208.210938 513.753906c-112.203126 0-203.492188-89.871094-203.492188-200.339844 0-110.457031 91.289062-200.328124 203.492188-200.328124 112.203124 0 203.496093 89.871093 203.496093 200.328124 0 110.46875-91.292969 200.339844-203.496093 200.339844zm0-383.621094c-102.804688 0-186.445313 82.222657-186.445313 183.28125 0 101.0625 83.640625 183.285157 186.445313 183.285157 102.804687 0 186.445312-82.222657 186.445312-183.285157 0-101.058593-83.640625-183.28125-186.445312-183.28125zm0 0"/><path d="m277.109375 237.480469c-19.257813 0-34.914063-15.65625-34.914063-34.910157 0-19.253906 15.65625-34.910156 34.914063-34.910156 19.253906 0 34.917969 15.65625 34.917969 34.910156 0 19.253907-15.660156 34.910157-34.917969 34.910157zm0-52.769531c-9.847656 0-17.867187 8.011718-17.867187 17.859374 0 9.847657 8.019531 17.863282 17.867187 17.863282s17.863281-8.015625 17.863281-17.863282c0-9.847656-8.015625-17.859374-17.863281-17.859374zm0 0"/><path d="m136.375 237.480469c-19.246094 0-34.910156-15.65625-34.910156-34.910157 0-19.253906 15.664062-34.910156 34.910156-34.910156 19.253906 0 34.914062 15.65625 34.914062 34.910156 0 19.253907-15.660156 34.910157-34.914062 34.910157zm0-52.769531c-9.847656 0-17.855469 8.011718-17.855469 17.859374 0 9.847657 8.007813 17.863282 17.855469 17.863282 9.84375 0 17.863281-8.015625 17.863281-17.863282 0-9.847656-8.019531-17.859374-17.863281-17.859374zm0 0"/><path d="m136.375 454.441406c-19.246094 0-34.910156-15.65625-34.910156-34.910156 0-19.25 15.664062-34.914062 34.910156-34.914062 19.253906 0 34.914062 15.664062 34.914062 34.914062 0 19.253906-15.660156 34.910156-34.914062 34.910156zm0-52.769531c-9.847656 0-17.855469 8.007813-17.855469 17.859375 0 9.847656 8.007813 17.863281 17.855469 17.863281 9.84375 0 17.863281-8.015625 17.863281-17.863281 0-9.851562-8.019531-17.859375-17.863281-17.859375zm0 0"/><path d="m68.945312 345.964844c-19.257812 0-34.917968-15.660156-34.917968-34.910156 0-19.253907 15.660156-34.914063 34.917968-34.914063 19.253907 0 34.914063 15.660156 34.914063 34.914063 0 19.25-15.660156 34.910156-34.914063 34.910156zm0-52.777344c-9.847656 0-17.867187 8.015625-17.867187 17.867188 0 9.847656 8.019531 17.863281 17.867187 17.863281 9.847657 0 17.863282-8.015625 17.863282-17.863281 0-9.851563-8.015625-17.867188-17.863282-17.867188zm0 0"/><path d="m347.472656 345.964844c-19.246094 0-34.910156-15.660156-34.910156-34.910156 0-19.253907 15.664062-34.914063 34.910156-34.914063 19.253906 0 34.914063 15.660156 34.914063 34.914063 0 19.25-15.660157 34.910156-34.914063 34.910156zm0-52.777344c-9.847656 0-17.855468 8.015625-17.855468 17.867188 0 9.847656 8.007812 17.863281 17.855468 17.863281s17.863282-8.015625 17.863282-17.863281c0-9.851563-8.015626-17.867188-17.863282-17.867188zm0 0"/><path d="m280.035156 454.441406c-19.242187 0-34.90625-15.65625-34.90625-34.910156 0-19.25 15.664063-34.914062 34.90625-34.914062 19.257813 0 34.917969 15.664062 34.917969 34.914062 0 19.253906-15.660156 34.910156-34.917969 34.910156zm0-52.769531c-9.847656 0-17.851562 8.007813-17.851562 17.859375 0 9.847656 8.003906 17.863281 17.851562 17.863281 9.851563 0 17.867188-8.015625 17.867188-17.863281 0-9.851562-8.015625-17.859375-17.867188-17.859375zm0 0"/><path d="m207.003906 513.753906c-4.710937 0-8.527344-3.820312-8.527344-8.527344v-383.613281c0-4.710937 3.816407-8.527343 8.527344-8.527343 4.710938 0 8.527344 3.816406 8.527344 8.527343v383.613281c0 4.707032-3.816406 8.527344-8.527344 8.527344zm0 0"/><path d="m247.082031 69.96875c-4.992187-3.308594-11.710937-1.941406-15.015625 3.042969-3.308594 4.984375-1.945312 11.707031 3.039063 15.015625s11.707031 1.941406 15.015625-3.042969c3.304687-4.988281 1.945312-11.707031-3.039063-15.015625zm0 0"/><path d="m187.40625 69.96875c-4.988281-3.308594-11.707031-1.945312-15.015625 3.039062-3.300781 4.984376-1.941406 11.710938 3.042969 15.015626 4.984375 3.304687 11.707031 1.945312 15.015625-3.039063 3.304687-4.988281 1.945312-11.714844-3.042969-15.015625zm0 0"/></svg>