<svg height="511pt" viewBox="-25 0 511 511.99537" width="511pt" xmlns="http://www.w3.org/2000/svg"><path d="m67.074219 58.148438v13c0 4.144531 3.359375 7.503906 7.5 7.503906 4.144531 0 7.5-3.359375 7.5-7.503906v-13c0-4.144532-3.355469-7.5-7.5-7.5-4.140625 0-7.5 3.355468-7.5 7.5zm0 0"/><path d="m218.273438 78.652344c4.144531 0 7.503906-3.359375 7.503906-7.503906v-13c0-4.144532-3.359375-7.5-7.503906-7.5-4.140626 0-7.5 3.355468-7.5 7.5v13c0 4.144531 3.359374 7.503906 7.5 7.503906zm0 0"/><path d="m158.511719 65.308594c-2.933594 3.355468-7.339844 5.28125-12.085938 5.28125-4.75 0-9.152343-1.925782-12.085937-5.28125-2.726563-3.117188-7.464844-3.4375-10.585938-.710938-3.117187 2.726563-3.4375 7.464844-.710937 10.582032 5.785156 6.617187 14.304687 10.414062 23.382812 10.414062 9.074219 0 17.597657-3.796875 23.378907-10.410156 2.726562-3.121094 2.410156-7.859375-.710938-10.585938-3.117188-2.726562-7.855469-2.40625-10.582031.710938zm0 0"/><path d="m111.625 410.804688c1.351562 3.84375 5.730469 5.933593 9.5625 4.585937 3.910156-1.371094 5.964844-5.652344 4.589844-9.5625-1.640625-4.660156-3.578125-9.277344-5.765625-13.714844-1.832031-3.714843-6.328125-5.242187-10.042969-3.410156s-5.246094 6.328125-3.414062 10.042969c1.925781 3.902344 3.628906 7.957031 5.070312 12.058594zm0 0"/><path d="m95.902344 358.605469c-2.9375-2.917969-7.6875-2.902344-10.605469.035156-2.921875 2.941406-2.90625 7.6875.035156 10.609375 3.089844 3.066406 6.027344 6.351562 8.730469 9.765625 2.480469 3.128906 7.292969 3.789063 10.539062 1.214844 3.246094-2.574219 3.789063-7.292969 1.214844-10.535157-3.070312-3.875-6.40625-7.605468-9.914062-11.089843zm0 0"/><path d="m55.679688 348.21875c3.914062 1.898438 7.761718 4.050781 11.429687 6.40625 3.355469 2.152344 8.117187 1.230469 10.359375-2.265625 2.238281-3.484375 1.226562-8.125-2.261719-10.363281-4.167969-2.671875-8.539062-5.121094-12.988281-7.277344-3.726562-1.804688-8.214844-.246094-10.019531 3.480469-1.804688 3.730469-.246094 8.214843 3.480469 10.019531zm0 0"/><path d="m313.515625 379.667969c2.679687-.015625 5.292969-1.457031 6.625-3.953125 2.085937-3.90625 4.367187-7.769532 6.789063-11.480469 2.261718-3.46875 1.285156-8.117187-2.1875-10.378906-3.46875-2.261719-8.113282-1.285157-10.378907 2.1875-2.65625 4.078125-5.167969 8.320312-7.457031 12.613281-1.949219 3.652344-.566406 8.195312 3.085938 10.148438 1.117187.59375 2.328124.871093 3.523437.863281zm0 0"/><path d="m296.445312 392.625c-1.59375 4.601562-2.996093 9.332031-4.175781 14.058594-1 4.019531 1.445313 8.089844 5.464844 9.089844 3.964844.988281 8.105469-1.496094 9.09375-5.460938 1.070313-4.300781 2.347656-8.601562 3.792969-12.785156 1.355468-3.917969-.722656-8.1875-4.636719-9.539063-3.914063-1.355469-8.1875.722657-9.539063 4.636719zm0 0"/><path d="m387.082031 336.773438c-13.210937-6.59375-27.921875-9.890626-42.40625-12.273438-12.769531-2.101562-26.445312-3.167969-40.976562-3.167969-.035157 0-.074219 0-.109375 0-14.722656.226563-24.207032-2.664062-30.40625-9.464843 4.066406-5.042969 5.644531-11.957032 3.597656-18.605469-2.117188-6.878907-7.578125-11.929688-14.292969-13.617188-.582031-5.707031-.941406-12.203125-1.097656-19.855469 5.957031-3.507812 9.972656-9.972656 9.972656-17.367187 0-7.273437-3.882812-13.640625-9.671875-17.1875.164063-6.535156.832032-28.734375.953125-32.960937 5.808594-3.542969 9.703125-9.921876 9.703125-17.207032 0-6.953125-3.535156-13.09375-8.902344-16.71875.132813-7.992187.210938-15.601562.242188-23.019531 13.679688-3.363281 23.859375-15.730469 23.859375-30.433594v-73.546875c-.003906-17.285156-14.0625-31.347656-31.347656-31.347656h-36.96875c-4.140625 0-7.5 3.359375-7.5 7.5 0 4.144531 3.359375 7.5 7.5 7.5h36.96875c9.011719 0 16.34375 7.332031 16.34375 16.347656v73.546875c0 9.011719-7.332031 16.34375-16.34375 16.34375h-219.546875c-9.015625 0-16.34375-7.332031-16.34375-16.34375v-73.546875c0-9.015625 7.332031-16.347656 16.34375-16.347656h152.578125c4.140625 0 7.5-3.355469 7.5-7.5 0-4.140625-3.359375-7.5-7.5-7.5h-152.578125c-17.285156 0-31.347656 14.0625-31.347656 31.347656v73.546875c0 14.691407 10.167968 27.050781 23.832031 30.425781-.121094 43.777344-1.476563 80.972657-4.132813 113.496094-.339844 4.128906 2.734375 7.75 6.863282 8.085938 4.125.339844 7.75-2.734375 8.085937-6.863282 2.675781-32.703124 4.046875-70 4.1875-113.800781h204.542969c-.027344 6.054688-.089844 12.242188-.1875 18.664063h-18.828125c-5.394531-5.496094-12.828125-8.695313-20.59375-8.695313-15.910157 0-28.855469 12.945313-28.855469 28.855469 0 15.914062 12.945312 28.859375 28.855469 28.859375 7.765625 0 15.199219-3.199219 20.59375-8.695313h17.882812c-.089843 3.046876-.636719 21.25-.792969 27.027344h-18.078124c-5.390626-5.496094-12.828126-8.691406-20.589844-8.691406-15.914063 0-28.859375 12.941406-28.859375 28.855469 0 15.910156 12.945312 28.855469 28.859375 28.855469 7.761718 0 15.199218-3.195313 20.589844-8.691407h17.773437c.183594 7 .546875 13.097657 1.109375 18.574219l-17.488281 5.378906c-4.214844-2.285156-8.976563-3.527344-13.769531-3.527344-2.867188 0-5.722657.429688-8.484376 1.277344-15.210937 4.683594-23.773437 20.859375-19.097656 36.070313 3.75 12.1875 14.832032 20.375 27.574219 20.375 2.871094 0 5.730469-.429688 8.492187-1.28125 7.441407-2.289063 13.613282-7.535157 17.148438-14.375l18.066406-5.554688c9.046875 11.734375 23.128906 17.113281 43.746094 16.808594 8.746094 0 17.136719.414063 25.171875 1.214844-1.140625 2.835937-.472656 6.203125 1.929687 8.367187 2.996094 2.699219 7.835938 2.507813 10.59375-.550781 1.632813-1.8125 3.335938-3.582031 5.0625-5.324219 7.871094 1.476563 15.324219 3.394532 22.339844 5.746094-11.738281 9.925781-21.664062 21.957031-29.386718 35.238281-10.269532 17.65625-16.175782 37.828125-17.398438 58.199219-.007812.128906-.019531.257812-.027344.386719h-19.515625c.09375-1.949219.21875-3.898438.386719-5.828125.359375-4.128906-2.695312-7.765625-6.820312-8.125-4.128907-.359375-7.765626 2.695312-8.125 6.820312-.207032 2.363282-.359376 4.746094-.464844 7.132813h-154.933594c-.160156-2.65625-.394531-5.308594-.71875-7.929688-.507812-4.109375-4.253906-7.03125-8.367188-6.519531-4.109374.507812-7.03125 4.253906-6.519531 8.363281.25 2.011719.4375 4.046875.574219 6.085938h-19.546875c-.011719-.175781-.039063-.351563-.054687-.527344-2.011719-22.785156-12.960938-44.355469-30.050782-59.539063-12.269531-10.898437-27.566406-18.378906-43.722656-21.285156-.03125-.003906-.0625-.011718-.09375-.019531.667969-3.554687 3.121094-16.320313 3.660156-19.144531 2.003906.367187 4.003906.78125 5.976563 1.257812 3.972656.953125 8.085937-1.558594 9.046875-5.539062.96875-4.027344-1.511719-8.078125-5.539063-9.046875-2.230469-.539063-4.496093-1.007813-6.769531-1.421875 2.265625-12.78125 4.527344-27.113282 6.519531-44.039063.484375-4.113281-2.460937-7.84375-6.574219-8.328125-4.113281-.484375-7.839843 2.460938-8.324218 6.574219-3.210938 27.292969-6.996094 46.96875-10.652344 66-1.242188 6.441406-2.410156 12.527344-3.527344 18.75-4.429687 24.660156-7.382812 48.347656-7.382812 83.808594v32.613281c0 12.234375 6.78125 23.273438 17.695312 28.8125 8.996094 4.5625 20.09375 4.632812 29.226563 0 7.019531-3.5625 13.460937-3.511719 20.382812 0 8.996094 4.5625 20.101563 4.628906 29.230469 0 7.023438-3.566406 13.453125-3.515625 20.382812 0 8.996094 4.5625 20.09375 4.632812 29.230469 0 7.039063-3.574219 13.433594-3.527344 20.378907 0 9.109374 4.621094 20.125 4.617188 29.230468 0 7.015625-3.558594 13.453125-3.519531 20.382813 0 8.996093 4.5625 20.101562 4.628906 29.230469 0 6.996093-3.550781 13.46875-3.507812 20.382812 0 8.984375 4.554688 20.109375 4.625 29.226562 0 7-3.550781 13.46875-3.507812 20.386719 0 9.105469 4.617188 20.117188 4.621094 29.226563 0 7.046875-3.574219 13.4375-3.527344 20.382812 0 8.992188 4.5625 20.101563 4.628906 29.230469 0 7.035156-3.570312 13.445313-3.523438 20.382813 0 21.1875 10.75 46.921874-5.195312 46.921874-28.8125v-32.570312c.015626-1.480469.035157-20.074219-8.882812-42.636719-8.417969-21.285157-26.703125-50.316407-66.042969-67.738281zm-166.703125-11.660157c-7.25 2.226563-15.089844-1.925781-17.316406-9.167969-2.246094-7.300781 1.867188-15.070312 9.167969-17.316406 1.136719-.351562 2.300781-.554687 3.472656-.605468-1.679687 3.671874-2.191406 7.832031-1.496094 11.808593.988281 5.644531 4.398438 10.773438 9.289063 13.773438.035156.019531.0625.042969.09375.0625-.988282.605469-2.0625 1.09375-3.210938 1.445312zm-12.867187-149.992187c.007812 3.3125.824219 6.621094 2.445312 9.601562.738281 1.347656 1.605469 2.613282 2.621094 3.753906-1.125.292969-2.300781.445313-3.5.445313-7.640625 0-13.855469-6.214844-13.855469-13.855469s6.214844-13.855468 13.855469-13.855468c1.199219 0 2.375.148437 3.5.441406-1.015625 1.140625-1.882813 2.40625-2.617187 3.757812-1.644532 3.007813-2.460938 6.359375-2.449219 9.710938zm20.140625 5.105468c-2.789063 0-5.164063-2.375-5.164063-5.160156 0-2.792968 2.371094-5.164062 5.164063-5.164062h24.53125c2.800781 0 5.164062 2.371094 5.164062 5.164062 0 2.769532-2.382812 5.160156-5.164062 5.160156zm-21.046875 64.1875c.425781 4.1875 2.183593 8.269532 4.984375 11.417969-1.125.292969-2.300782.441407-3.5.441407-7.640625 0-13.855469-6.214844-13.855469-13.855469s6.214844-13.855469 13.855469-13.855469c1.199218 0 2.375.152344 3.5.445312-1.015625 1.140626-1.882813 2.40625-2.621094 3.757813-1.917969 3.53125-2.769531 7.648437-2.363281 11.648437zm20.058593 3.167969c-2.78125 0-5.160156-2.386719-5.160156-5.164062 0-2.757813 2.398438-5.160157 5.160156-5.160157h24.535157c2.800781 0 5.160156 2.363282 5.160156 5.160157 0 2.78125-2.378906 5.164062-5.160156 5.164062zm32.363282 56.542969-23.449219 7.214844c-2.683594.828125-5.617187-.746094-6.453125-3.414063-.8125-2.601562.800781-5.609375 3.417969-6.453125l23.449219-7.214844c.007812-.003906.019531-.003906.027343-.007812 2.671875-.8125 5.601563.753906 6.425781 3.425781.835938 2.71875-.699218 5.613281-3.417968 6.449219zm78.300781 132.171875c2.242187-24.289063 12.195313-47.652344 28.140625-66.109375 5.691406-6.589844 12.289062-12.710938 19.382812-17.921875 25.625 12.347656 43.8125 31.578125 54.101563 57.210937 4.90625 12.222657 6.824219 23.246094 7.574219 30.132813h-109.457032c.070313-1.105469.15625-2.207031.257813-3.3125zm-315.910156-63.285156c.058593.203125 3.035156.613281 3.285156.667969 20.605469 4.664062 38.886719 18.492187 49.160156 36.929687 4.445313 7.976563 7.355469 16.785156 8.671875 25.816406.152344 1.058594.273438 2.121094.378906 3.183594h-67.367187c.34375-27.042969 2.570313-46.921875 5.871094-66.597656zm425.589843 106.710937c0 12.421875-13.710937 21.226563-25.136718 15.433594-11.214844-5.691406-22.824219-5.648438-33.953125 0-4.828125 2.449219-10.828125 2.449219-15.65625 0-11.171875-5.667969-22.855469-5.628906-33.953125 0-4.832032 2.449219-10.832032 2.449219-15.660156 0-11.191407-5.679688-22.851563-5.632812-33.953126 0-4.832031 2.449219-10.828124 2.449219-15.65625 0-11.195312-5.679688-22.855468-5.632812-33.957031 0-4.828125 2.449219-10.828125 2.449219-15.65625 0-11.222656-5.695312-22.828125-5.648438-33.957031 0-4.828125 2.449219-10.828125 2.449219-15.65625 0-11.214844-5.691406-22.832031-5.644531-33.953125-.003906-4.828125 2.453125-10.832031 2.453125-15.660156 0-11.167969-5.664063-22.859375-5.628906-33.953125 0-4.832032 2.449218-10.828125 2.453125-15.660156 0-11.21875-5.691406-22.824219-5.644532-33.953126 0-11.347656 5.757812-25.136718-2.785156-25.136718-15.433594v-25.109375h431.511718zm0 0"/></svg>