<?xml version="1.0" encoding="iso-8859-1"?>
<!-- Generator: Adobe Illustrator 19.0.0, SVG Export Plug-In . SVG Version: 6.00 Build 0)  -->
<svg version="1.1" id="Capa_1" xmlns="http://www.w3.org/2000/svg" xmlns:xlink="http://www.w3.org/1999/xlink" x="0px" y="0px"
	 viewBox="0 0 470 470" style="enable-background:new 0 0 470 470;" xml:space="preserve">
<g>
	<path d="M462.5,375.641h-2.494c-3.559-33.744-30.484-66.56-63.081-75.328l-95.522-25.694
		c-28.706-7.722-55.543-39.227-58.602-68.796L228.975,72.144c-0.395-3.823-3.617-6.729-7.46-6.729H32.791v-22.5
		c0-4.142-3.358-7.5-7.5-7.5s-7.5,3.358-7.5,7.5v179.021c0,15.627-2.816,38.022-6.154,48.957c-0.007,0.022-0.013,0.044-0.019,0.066
		c-3.764,12.29-6.826,32.298-6.826,44.608v37.224c-0.963,0.373-1.85,0.939-2.594,1.684C0.79,355.882,0,357.79,0,359.779v67.306
		c0,4.142,3.358,7.5,7.5,7.5h131.882c4.142,0,7.5-3.358,7.5-7.5v-24.333l110.294,20.564v3.769c0,4.142,3.357,7.5,7.5,7.5H462.5
		c4.143,0,7.5-3.358,7.5-7.5v-43.944C470,378.999,466.643,375.641,462.5,375.641z M393.029,314.798
		c25.991,6.991,48.278,33.802,51.87,60.843H265.37l-40.459-7.543c2.689-11.509,13.027-20.11,25.344-20.11h38.81
		c4.143,0,7.5-3.358,7.5-7.5v-30.456c0-0.028,0-21.205,0-21.205c0.315,0.089,0.627,0.193,0.942,0.277L393.029,314.798z
		 M281.564,282.821v16.553c-35.45-15.175-64.729-53.015-68.604-90.466l-0.879-8.494h15.081l0.719,6.95
		C231,237.51,253.711,268.316,281.564,282.821z M221.474,145.415h-15.08l-2.586-25h15.08L221.474,145.415z M223.025,160.415
		l2.586,25h-15.081l-2.586-25H223.025z M214.75,80.415l2.586,25h-21.836c-0.027,0-110.21,0-110.21,0c-4.142,0-7.5,3.358-7.5,7.5
		s3.358,7.5,7.5,7.5h103.437l2.586,25h-1.684c-4.142,0-7.5,3.358-7.5,7.5s3.358,7.5,7.5,7.5h3.236l2.586,25h-1.684
		c-4.142,0-7.5,3.358-7.5,7.5s3.358,7.5,7.5,7.5h3.236l1.038,10.037c4.687,45.308,40.143,89.461,83.523,105.043v17.492h-31.31
		c-19.649,0-36.109,13.886-40.1,32.358l-69.398-12.939c-0.453-0.084-0.914-0.127-1.375-0.127l-119.591-0.001v-36.71
		c0-9.217,2.028-23.817,4.679-34.708c30.722,2.227,57.846,22.358,68.592,51.512c1.117,3.031,3.986,4.908,7.038,4.908
		c0.861,0,1.737-0.149,2.593-0.465c3.887-1.433,5.876-5.745,4.443-9.631c-12.469-33.83-43.472-57.44-78.9-61.042
		c2.651-12.929,4.555-30.677,4.555-44.206V120.415h22.5c4.142,0,7.5-3.358,7.5-7.5s-3.358-7.5-7.5-7.5h-22.5v-25H214.75z
		 M455,419.585h-17.971v-5.313c0-4.142-3.357-7.5-7.5-7.5s-7.5,3.358-7.5,7.5v5.313h-17.971v-5.313c0-4.142-3.357-7.5-7.5-7.5
		s-7.5,3.358-7.5,7.5v5.313h-17.97v-5.313c0-4.142-3.357-7.5-7.5-7.5s-7.5,3.358-7.5,7.5v5.313h-17.971v-5.313
		c0-4.142-3.357-7.5-7.5-7.5s-7.5,3.358-7.5,7.5v5.313h-17.971v-5.313c0-4.142-3.357-7.5-7.5-7.5s-7.5,3.358-7.5,7.5v5.313h-17.971
		v-2.5c0-3.612-2.574-6.711-6.125-7.373l-125.295-23.361c-2.192-0.406-4.452,0.179-6.167,1.604s-2.708,3.539-2.708,5.769v25.861
		h-17.971v-5.313c0-4.142-3.358-7.5-7.5-7.5s-7.5,3.358-7.5,7.5v5.313H80.941v-5.313c0-4.142-3.358-7.5-7.5-7.5s-7.5,3.358-7.5,7.5
		v5.313h-17.97v-5.313c0-4.142-3.358-7.5-7.5-7.5s-7.5,3.358-7.5,7.5v5.313H15v-52.306l123.689,0.001l124.613,23.234
		c0.454,0.084,0.914,0.127,1.375,0.127H455V419.585z"/>
</g>
<g>
</g>
<g>
</g>
<g>
</g>
<g>
</g>
<g>
</g>
<g>
</g>
<g>
</g>
<g>
</g>
<g>
</g>
<g>
</g>
<g>
</g>
<g>
</g>
<g>
</g>
<g>
</g>
<g>
</g>
</svg>
