<svg height="512pt" viewBox="-186 0 512 512.00075" width="512pt" xmlns="http://www.w3.org/2000/svg"><path d="m80 254c0 5.523438-4.476562 10-10 10s-10-4.476562-10-10 4.476562-10 10-10 10 4.476562 10 10zm0 0"/><path d="m140 224c0-14.773438-8.101562-28.015625-19.898438-35.242188 6.3125-7.453124 9.898438-17.066406 9.898438-26.757812 0-14.992188-7.972656-28.179688-19.824219-35.332031 6.265625-7.441407 9.824219-17.015625 9.824219-26.667969 0-14.773438-8.054688-27.691406-20-34.617188v-15.382812c0-4.550781-1.007812-8.945312-2.921875-12.9375l19.992187-19.992188c3.90625-3.902343 3.90625-10.234374 0-14.140624-3.902343-3.90625-10.234374-3.90625-14.140624 0l-19.992188 19.992187c-3.988281-1.910156-8.386719-2.921875-12.9375-2.921875s-8.949219 1.011719-12.9375 2.921875l-19.992188-19.992187c-3.902343-3.90625-10.234374-3.90625-14.140624 0s-3.90625 10.238281 0 14.144531l19.992187 19.992187c-1.910156 3.988282-2.921875 8.382813-2.921875 12.933594v15.355469c-11.960938 6.933593-20 19.789062-20 34.644531 0 9.855469 3.703125 19.320312 9.886719 26.671875-12.527344 7.632813-19.886719 21.398437-19.886719 35.328125 0 10.105469 3.792969 19.484375 9.960938 26.722656-11.832032 7.214844-19.960938 20.476563-19.960938 35.277344 0 12.074219 5.378906 22.914062 13.863281 30.253906-8.441406 7.582032-13.863281 18.652344-13.863281 30.746094 0 12.203125 5.53125 23.359375 14.101562 30.949219-9.132812 8.089843-14.101562 19.605469-14.101562 31.050781 0 14.800781 8.128906 28.0625 19.960938 35.277344-6.167969 7.238281-9.960938 16.621094-9.960938 26.722656 0 14.050781 7.445312 27.730469 19.847656 35.304688-6.28125 7.449218-9.847656 17.035156-9.847656 26.695312 0 22.226562 18.320312 41 40 41h20c22.394531 0 40-19.230469 40-41 0-10.101562-3.792969-19.484375-9.960938-26.722656 11.832032-7.214844 19.960938-20.476563 19.960938-35.277344 0-9.664062-3.566406-19.25-9.84375-26.695312 12.3125-7.519532 19.84375-21.15625 19.84375-35.304688 0-12.230469-5.554688-23.414062-14.164062-31 8.609374-7.585938 14.164062-18.765625 14.164062-31 0-12.09375-5.421875-23.164062-13.859375-30.746094 8.484375-7.339844 13.859375-18.179687 13.859375-30.253906zm-90-41c-10.839844 0-20-9.617188-20-21 0-10.960938 8.898438-21 20-21h40.183594c10.742187.105469 19.816406 9.722656 19.816406 21 0 10.960938-8.898438 21-20 21zm10-133c0-5.519531 4.476562-10 10-10 5.519531 0 10 4.480469 10 10v10h-20zm0 30h20c11.027344 0 20 8.972656 20 20 0 10.980469-8.921875 21-20 21h-20c-11.046875 0-20-9.917969-20-21 0-11.042969 8.953125-20 20-20zm30 308c11.082031 0 20 10.019531 20 21 0 11.382812-9.160156 21-20 21-14.59375 0-25.203125 0-40 0-11.078125 0-20-10.015625-20-21 0-11.382812 9.160156-21 20-21zm-10 104h-20c-10.839844 0-20-9.617188-20-21 0-10.960938 8.898438-21 20-21h20c10.839844 0 20 9.617188 20 21 0 10.960938-8.898438 21-20 21zm40-145c0 10.960938-8.898438 21-20 21h-60c-10.839844 0-20-9.617188-20-21 0-10.960938 8.898438-21 20-21h60c10.839844 0 20 9.617188 20 21zm-80-41c-10.839844 0-20-9.617188-20-21s9.160156-21 20-21c5.523438 0 10-4.476562 10-10s-4.476562-10-10-10c-11.027344 0-20-8.972656-20-20 0-11.382812 9.160156-21 20-21h60c10.839844 0 20 9.617188 20 21 0 11.027344-8.972656 20-20 20-5.523438 0-10 4.476562-10 10s4.476562 10 10 10c10.839844 0 20 9.617188 20 21s-9.160156 21-20 21zm0 0"/></svg>