<?xml version="1.0" encoding="iso-8859-1"?>
<!-- Generator: Adobe Illustrator 17.1.0, SVG Export Plug-In . SVG Version: 6.00 Build 0)  -->
<!DOCTYPE svg PUBLIC "-//W3C//DTD SVG 1.1//EN" "http://www.w3.org/Graphics/SVG/1.1/DTD/svg11.dtd">
<svg version="1.1" id="Capa_1" xmlns="http://www.w3.org/2000/svg" xmlns:xlink="http://www.w3.org/1999/xlink" x="0px" y="0px"
	 viewBox="0 0 474.899 474.899" style="enable-background:new 0 0 474.899 474.899;" xml:space="preserve">
<path d="M194.689,58.145c0-14.236-11.582-25.818-25.818-25.818s-25.818,11.582-25.818,25.818s11.582,25.818,25.818,25.818
	S194.689,72.381,194.689,58.145z M168.87,68.963c-5.965,0-10.818-4.853-10.818-10.818s4.853-10.818,10.818-10.818
	s10.818,4.853,10.818,10.818S174.836,68.963,168.87,68.963z M351.096,278.352l-29.118-14.559c-3.269-1.635-6.929-2.499-10.582-2.499
	c-4.398,0-8.7,1.222-12.442,3.535c-7.026,4.343-11.222,11.868-11.222,20.129v95.016c0,26.246-21.354,47.599-47.6,47.599
	s-47.599-21.353-47.599-47.599v-268.73c20.832-9.28,34.482-29.981,34.482-53.099C227.016,26.084,200.932,0,168.87,0
	s-58.145,26.084-58.145,58.145c0,0.836,0.023,1.668,0.058,2.497c0.013,0.314,0.034,0.626,0.052,0.939
	c0.029,0.49,0.062,0.978,0.103,1.465c0.034,0.412,0.071,0.823,0.114,1.233c0.033,0.312,0.072,0.622,0.11,0.933
	c2.472,20.592,15.608,37.935,34.045,46.088v268.674c0,52.342,42.583,94.925,94.925,94.925s94.926-42.583,94.926-94.925v-57.432
	c1.784,0.424,3.614,0.642,5.441,0.642c0.001,0,0.001,0,0.001,0c9.027,0,17.143-5.014,21.178-13.084
	C367.513,298.429,362.766,284.187,351.096,278.352z M348.262,303.391c-1.479,2.956-4.452,4.792-7.762,4.792
	c-1.345,0-2.644-0.309-3.861-0.918l-5.728-2.863c-2.323-1.163-5.084-1.039-7.297,0.328c-2.211,1.367-3.557,3.781-3.557,6.38v68.863
	c0,44.071-35.854,79.925-79.926,79.925c-44.071,0-79.925-35.854-79.925-79.925V115.645c0.946,0.141,1.899,0.261,2.86,0.357
	c0.253,0.025,0.504,0.038,0.752,0.038c3.808,0,7.069-2.888,7.454-6.757c0.411-4.122-2.598-7.796-6.719-8.207
	c-3.178-0.317-6.239-0.979-9.159-1.928c-0.098-0.038-0.188-0.089-0.288-0.123c-15.357-5.187-26.31-18.387-28.829-33.989
	c-0.005-0.033-0.011-0.065-0.016-0.097c-0.072-0.455-0.134-0.912-0.192-1.371c-0.026-0.206-0.05-0.413-0.073-0.62
	c-0.04-0.361-0.077-0.722-0.108-1.085c-0.029-0.339-0.051-0.681-0.072-1.022c-0.017-0.266-0.036-0.531-0.048-0.798
	c-0.027-0.629-0.044-1.26-0.044-1.896C125.725,34.355,145.08,15,168.87,15s43.145,19.355,43.145,43.145
	c0,18.515-11.808,34.943-29.382,40.879c-3.048,1.029-5.1,3.888-5.1,7.105v273.844c0,34.517,28.082,62.599,62.599,62.599
	c34.518,0,62.6-28.082,62.6-62.599v-95.016c0-3.025,1.536-5.78,4.108-7.37c2.509-1.549,5.79-1.699,8.429-0.379l29.118,14.559
	c2.07,1.035,3.613,2.813,4.345,5.009S349.296,301.321,348.262,303.391z"/>
<g>
</g>
<g>
</g>
<g>
</g>
<g>
</g>
<g>
</g>
<g>
</g>
<g>
</g>
<g>
</g>
<g>
</g>
<g>
</g>
<g>
</g>
<g>
</g>
<g>
</g>
<g>
</g>
<g>
</g>
</svg>
