<svg height="512pt" viewBox="-29 0 512 512" width="512pt" xmlns="http://www.w3.org/2000/svg"><path d="m210.347656 68.664062c1.109375.394532 2.246094.585938 3.359375.585938 4.105469 0 7.960938-2.554688 9.425781-6.640625.042969-.125.089844-.253906.128907-.382813 1.710937-5.25-1.160157-10.894531-6.410157-12.605468-5.207031-1.695313-10.800781 1.113281-12.5625 6.277344-1.851562 5.199218.859376 10.90625 6.058594 12.765624zm0 0"/><path d="m454.109375 314.035156c-2.730469-30.054687-17.78125-63.035156-36.738281-82.089844-1.988282-2-107.535156-107.789062-107.535156-107.789062-7.785157-7.78125-12.722657-17.460938-13.546876-26.546875-.523437-5.757813.78125-10.664063 3.578126-13.460937 9.308593-9.308594 14.4375-21.6875 14.4375-34.855469 0-13.164063-5.128907-25.546875-14.4375-34.855469-9.3125-9.308594-21.691407-14.4375-34.855469-14.4375-.003907 0 0 0-.003907 0-13.164062 0-25.542968 5.128906-34.851562 14.4375-3.90625 3.90625-3.90625 10.238281 0 14.140625l49.6875 49.691406c-2.402344 4.90625-3.636719 10.59375-3.648438 16.75h-58.277343c-.003907-2.679687.078125-5.339843.269531-7.964843.410156-5.507813-3.722656-10.304688-9.230469-10.710938-5.515625-.414062-10.304687 3.722656-10.710937 9.230469-.511719 6.886719-.445313 13.953125.195312 21.007812 2.9375 32.347657 17.742188 63.347657 41.683594 87.289063l102.589844 102.589844c7.785156 7.785156 12.722656 17.460937 13.546875 26.546874.527343 5.753907-.777344 10.65625-3.570313 13.457032-.003906 0-.003906 0-.003906.003906 0 0-.003906 0-.003906.003906-2.796875 2.796875-7.703125 4.097656-13.457032 3.574219-9.085937-.828125-18.761718-5.765625-26.546874-13.550781l-102.585938-102.582032c-.699219-.703124-1.429688-1.390624-2.230469-2.097656-23.34375-21.726562-52.976562-35.21875-83.457031-37.988281-35.730469-3.242187-68.453125 8.015625-92.148438 31.710937-23.695312 23.695313-34.957031 56.421876-31.710937 92.144532 2.9375 32.347656 17.742187 63.347656 41.683594 87.289062l102.589843 102.589844c9.3125 9.3125 21.691407 14.4375 34.859376 14.4375 13.164062 0 25.542968-5.128906 34.851562-14.4375 9.3125-9.3125 14.4375-21.691406 14.4375-34.855469 0-13.167969-5.125-25.546875-14.4375-34.855469l-102.589844-102.59375c-7.785156-7.785156-12.722656-17.460937-13.550781-26.546874-.519531-5.75.78125-10.65625 3.570313-13.453126.003906-.003906.007812-.003906.007812-.007812.003906 0 .007812-.003906.007812-.007812 2.800782-2.789063 7.699219-4.089844 13.453126-3.566407 9.085937.824219 18.761718 5.761719 26.546874 13.546875l102.59375 102.59375c.691407.691406 1.417969 1.375 2.21875 2.082032 23.34375 21.734374 52.980469 35.226562 83.464844 37.996093 35.722656 3.246094 68.449219-8.015625 92.144532-31.710937 23.699218-23.699219 34.960937-56.425782 31.710937-92.148438zm-82.019531-9.179687c-1.644532-4.007813-3.738282-7.917969-6.257813-11.664063l41.835938-41.835937c12.710937 15.828125 21.308593 34.234375 24.976562 53.5zm-109.160156-116.464844 41.429687-41.425781 35.4375 35.441406-41.425781 41.425781zm-10.332032-165.648437c3.835938-1.796876 8.050782-2.742188 12.414063-2.742188 7.824219 0 15.179687 3.046875 20.710937 8.578125 5.535156 5.535156 8.582032 12.890625 8.582032 20.714844 0 4.359375-.945313 8.578125-2.742188 12.414062zm-32.832031 92.277343h60.386719c2.425781 6.132813 5.921875 12.046875 10.355468 17.511719l-41.554687 41.550781c-15.125-17.050781-25.238281-37.53125-29.1875-59.0625zm92.75 122.957031 41.425781-41.429687 40.125 40.125-41.429687 41.425781zm-99.75 99.75 41.429687-41.429687 35.441407 35.441406-41.429688 41.425781zm-49.585937-49.585937 41.429687-41.429687 35.441406 35.441406-41.429687 41.429687zm140.867187 57.472656c5.535156 4.535157 11.539063 8.105469 17.769531 10.570313v60.371094c-21.554687-3.972657-42.21875-14.199219-59.300781-29.414063zm-264.316406-108.460937 42.230469 42.230468c-2.40625 4.90625-3.675782 10.582032-3.683594 16.738282h-58.265625c-.066407-22.289063 6.757812-42.695313 19.71875-58.96875zm100.570312 144.75-41.425781 41.425781-35.441406-35.4375 41.425781-41.429687zm-118.429687-65.78125h60.382812c2.164063 5.464844 5.179688 10.757812 8.949219 15.710937l-41.636719 41.636719c-14.296875-16.699219-23.878906-36.535156-27.695312-57.347656zm178.519531 167.300781c-5.53125 5.53125-12.890625 8.578125-20.714844 8.578125s-15.179687-3.046875-20.710937-8.578125l-45.949219-45.949219 41.425781-41.425781 35.441406 35.441406-7.78125 7.78125c-3.90625 3.90625-3.90625 10.238281 0 14.144531 1.953126 1.953126 4.511719 2.929688 7.070313 2.929688s5.117187-.976562 7.070313-2.929688l7.460937-7.460937c3.417969 4.878906 5.265625 10.671875 5.265625 16.753906.003906 7.824219-3.046875 15.179688-8.578125 20.714844zm-104.289063-218.179687-42.230468-42.234376c16.453125-13.101562 37.128906-19.933593 59.710937-19.710937v58.277344c-6.441406-.089844-12.375 1.167969-17.480469 3.667969zm37.480469.605468v-60.535156c20.46875 3.917969 40.109375 13.441406 56.601563 27.539062l-41.632813 41.632813c-4.730469-3.597656-9.765625-6.5-14.96875-8.636719zm208.234375 152.578125v-58.265625c6.15625-.007812 11.832032-1.277344 16.738282-3.679687l42.230468 42.230469c-16.273437 12.957031-36.679687 19.78125-58.96875 19.714843zm73.113282-33.859375-42.230469-42.230468c2.5-5.101563 3.757812-11.039063 3.664062-17.480469h58.28125c.21875 22.578125-6.613281 43.257812-19.714843 59.710937zm0 0"/><path d="m162.625 458.746094-.292969.292968c-3.90625 3.90625-3.90625 10.238282 0 14.144532 1.953125 1.953125 4.511719 2.929687 7.070313 2.929687s5.117187-.976562 7.070312-2.929687l.296875-.292969c3.902344-3.90625 3.902344-10.238281 0-14.144531-3.90625-3.902344-10.238281-3.902344-14.144531 0zm0 0"/></svg>